# xmcd CD database file
#
# Track frame offsets:
#	150
#	17255
#	41576
#	62502
#	83987
#	100608
#	123435
#	151501
#
# Disc length: 2184 seconds
#
# Revision: 0
# Processed by: cddbd v1.5.1PL0 Copyright (c) Steve Scherf et al.
# Submitted via: CDex 1.51
#
DISCID=4c088608
DTITLE=Noche Caliente - Lo Mejor De Noche Caliente Vol. 1
DYEAR=1997
DGENRE=Salsa
TTITLE0=Simple Magica
TTITLE1=Estar Enamorado
TTITLE2=Dueno De Nada
TTITLE3=Preso
TTITLE4=O Me Quieres O Me Dejas
TTITLE5=Nathalie
TTITLE6=No Te Vayas Ahora
TTITLE7=Amor No Me Ignores
EXTD=YEAR: 1997
EXTT0=
EXTT1=
EXTT2=
EXTT3=
EXTT4=
EXTT5=
EXTT6=
EXTT7=
PLAYORDER=
